<?xml version="1.0" encoding="UTF-8" standalone="no"?>
<!-- Made with wootboard.com -->
<svg xmlns="http://www.w3.org/2000/svg" version="1.1" width="545px" height="102px">
<path xml:space="preserve" d="M 32 54 L 77.0126953125 40.2724609375 L 126.5712890625 35.5654296875 L 167.6796875 41.9375 L 268.5869140625 71.9990234375 L 348.611328125 79.8173828125 L 515.2138671875 78.9677734375 L 503.623046875 74 L 359.013671875 65.81640625 L 210.14453125 47.505859375 L 163.453125 36.0546875 L 123.7197265625 31.009765625 L 239.169921875 34.8486328125 L 297.6708984375 43.9443359375 L 381.8720703125 49.6767578125 L 507.623046875 65.376953125 L 492.376953125 53.623046875 L 403.7060546875 38.6337890625 L 264.9990234375 29.9990234375 L 78.0732421875 33 L 74.6220703125 39.23828125 L 116.9150390625 31.431640625 L 279.3984375 26 L 456.75390625 30.623046875 L 491.185546875 39.109375 L 525 62.451171875 L 522 77" stroke="#1b76ff" stroke-width="24px" fill="none" stroke-linecap="round" stroke-linejoin="round" ></path>
<path xml:space="preserve" d="M 75 32 L 75 32 L 59.1279296875 36.623046875 L 44.0986328125 42.9892578125 L 38 51" stroke="#1b76ff" stroke-width="24px" fill="none" stroke-linecap="round" stroke-linejoin="round" ></path>
<path xml:space="preserve" d="M 259 35 L 268.0888671875 36.939453125 L 353.8251953125 47.9345703125 L 434 44.376953125 L 430.474609375 43.171875 L 406.103515625 42.9541015625 L 293.2392578125 37.623046875 L 354.6416015625 36.0107421875 L 414 37" stroke="#1700e2" stroke-width="18px" fill="none" stroke-linecap="round" stroke-linejoin="round" ></path>
<path xml:space="preserve" d="M 431 41 L 421.8046875 36.388671875 L 401.0634765625 35 L 265 35" stroke="#1700e2" stroke-width="18px" fill="none" stroke-linecap="round" stroke-linejoin="round" ></path>
</svg>