<?xml version="1.0" ?>
<svg style="enable-background:new 0 0 512 512;" version="1.1" viewBox="0 0 512 512" xml:space="preserve" xmlns="http://www.w3.org/2000/svg" xmlns:xlink="http://www.w3.org/1999/xlink">
	<style type="text/css">
	.st0{fill:#7D5024;}
	.st1{fill:#FFFFFF;}
</style>
<g id="Edges"/>
<g id="Background">
	<path class="st0" d="M492.3,430.9c0,34.2-27.7,61.9-61.9,61.9H80.7c-34.2,0-61.9-27.7-61.9-61.9V81.1c0-34.2,27.7-61.9,61.9-61.9   h349.7c34.2,0,61.9,27.7,61.9,61.9V430.9z"/></g>
	<g id="Symbol">
		<path class="st1" d="M357.3,136.2c0-4.9-0.4-9.8-0.6-14.7c-10.5,0-19.4,0-29.4,0c0,11.2,0,21.7,0,32.3   c-47.2-65.8-144.3-45-171.6,20.5c-17.5,42-16.5,84.3,1.7,125.7c19.2,43.6,74.7,62.2,118.1,49.9c2.3-0.4,5-1.1,7.9-2   c4.2-1.3,7.7-2.8,10-4.2c6-2.4,13-6.5,20.1-11.9c5.6-4.3,10.5-8.9,14.2-13.2c-1.1,16.4-1.5,33-4.1,49.2   c-3.2,20-12.5,37.2-31.5,47.3c-41.6,22-91.5,5.3-110.3-37.2c-9.5,0-19,0-29.2,0c2.1,28,16.8,46.3,39.8,58.1   c27.6,14.2,57.3,15.7,87.5,10.8c38.5-6.3,63.6-28,72.3-66.4c3.1-13.6,4.8-27.8,4.9-41.8C357.6,271.2,357.3,203.7,357.3,136.2z    M322.8,277.3c-5.5,15.8-14.7,28.4-26.7,37c-3,2.1-17.6,12.4-39.1,13.4c-1.3,0.1-4.9,0.2-9.2,0c-0.2,0.1-0.3,0.1-0.5,0.1   c-31.3-1.9-55.4-20.2-65.9-50.5c-8.8-25.4-9.1-51.2-2.7-77c9.3-37.4,36.3-60.2,70.8-61.1c0.8-0.1,1.2-0.1,1.2-0.1   c17.9-1.6,31.9,5.9,36.3,8.3c18.5,9.9,32.3,28.3,38.5,52.9C331.9,226.1,331.6,251.9,322.8,277.3z"/>
	</g>
</svg>
