<svg width="156" height="474" viewBox="0 0 156 474" version="2.0" xmlns="http://www.w3.org/2000/svg" xmlns:xlink="http://www.w3.org/1999/xlink" xmlns:figma="http://www.figma.com/figma/ns">
  <title>cn tower</title>
  <g id="Canvas" transform="translate(-222 266)" figma:type="canvas">
    <rect x="222" y="-266" width="156" height="474" fill="none"/>
    <g id="Vector 2" style="mix-blend-mode:normal;" figma:type="vector">
      <use xlink:href="#path0_fill" transform="translate(224 -131.5)" fill="#C8E2EA" style="mix-blend-mode:normal;"/>
    </g>
    <g id="Vector" style="mix-blend-mode:normal;" figma:type="vector">
      <use xlink:href="#path1_fill" transform="translate(223 -265)" fill="#C4C4C4" style="mix-blend-mode:normal;"/>
      <use xlink:href="#path2_fill" transform="translate(223 -265)" fill="#C4C4C4" style="mix-blend-mode:normal;"/>
      <use xlink:href="#path3_fill" transform="translate(223 -265)" fill="#C4C4C4" style="mix-blend-mode:normal;"/>
      <use xlink:href="#path4_stroke" transform="translate(223 -265)" fill="#828282" style="mix-blend-mode:normal;"/>
    </g>
  </g>
  <defs>
    <path id="path0_fill" d="M 0 27.5L 0 0L 152 0L 152 32.5L 0 27.5Z"/>
    <path id="path1_fill" d="M 90 196L 64 196L 58.5 472.5L 108 472.5L 90 196Z"/>
    <path id="path2_fill" d="M 0 161L 8 185L 64 196L 90 196L 153.5 163.5L 0 161Z"/>
    <path id="path3_fill" d="M 74 0L 55 106L 37.5 106.5L 0 134L 154 134L 113.5 107L 97 106L 74 0Z"/>
    <path id="path4_stroke" d="M 74 0L 74.4886 -0.106023L 73.5078 -0.0882167L 74 0ZM 55 106L 55.0143 106.5L 55.4205 106.488L 55.4922 106.088L 55 106ZM 0 134L -0.295682 133.597L -0.5 133.747L -0.5 134L 0 134ZM 0 161L -0.5 161L -0.5 161.081L -0.474342 161.158L 0 161ZM 8 185L 7.52566 185.158L 7.61778 185.434L 7.90363 185.491L 8 185ZM 153.5 163.5L 153.728 163.945L 153.995 163.808L 154 163.508L 153.5 163.5ZM 154 134L 154.5 134.008L 154.505 133.735L 154.277 133.584L 154 134ZM 113.5 107L 113.777 106.584L 113.665 106.509L 113.53 106.501L 113.5 107ZM 97 106L 96.5114 106.106L 96.5917 106.476L 96.9698 106.499L 97 106ZM 108 472.5L 108 473L 108.534 473L 108.499 472.468L 108 472.5ZM 58.5 472.5L 58.0001 472.49L 57.99 473L 58.5 473L 58.5 472.5ZM 37.5 106.5L 37.4857 106L 37.33 106.005L 37.2043 106.097L 37.5 106.5ZM 73.5078 -0.0882167L 54.5078 105.912L 55.4922 106.088L 74.4922 0.0882167L 73.5078 -0.0882167ZM -0.5 134L -0.5 161L 0.5 161L 0.5 134L -0.5 134ZM -0.474342 161.158L 7.52566 185.158L 8.47434 184.842L 0.474342 160.842L -0.474342 161.158ZM 7.90363 185.491L 63.9036 196.491L 64.0964 195.509L 8.09637 184.509L 7.90363 185.491ZM 64 196.5L 90 196.5L 90 195.5L 64 195.5L 64 196.5ZM 90.2278 196.445L 153.728 163.945L 153.272 163.055L 89.7722 195.555L 90.2278 196.445ZM 154 163.508L 154.5 134.008L 153.5 133.992L 153 163.492L 154 163.508ZM 154.277 133.584L 113.777 106.584L 113.223 107.416L 153.723 134.416L 154.277 133.584ZM 113.53 106.501L 97.0302 105.501L 96.9698 106.499L 113.47 107.499L 113.53 106.501ZM 97.4886 105.894L 74.4886 -0.106023L 73.5114 0.106023L 96.5114 106.106L 97.4886 105.894ZM 89.5011 196.032L 107.501 472.532L 108.499 472.468L 90.4989 195.968L 89.5011 196.032ZM 108 472L 58.5 472L 58.5 473L 108 473L 108 472ZM 58.9999 472.51L 64.4999 196.01L 63.5001 195.99L 58.0001 472.49L 58.9999 472.51ZM 0 134.5L 154 134.5L 154 133.5L 0 133.5L 0 134.5ZM 153.508 163L 0.00814224 160.5L -0.00814224 161.5L 153.492 164L 153.508 163ZM 54.9857 105.5L 37.4857 106L 37.5143 107L 55.0143 106.5L 54.9857 105.5ZM 37.2043 106.097L -0.295682 133.597L 0.295682 134.403L 37.7957 106.903L 37.2043 106.097Z"/>
  </defs>
</svg>
